<svg xmlns="http://www.w3.org/2000/svg" xmlns:xlink="http://www.w3.org/1999/xlink" viewBox="0 0 24 24" fill="#00caff">
<path d="M21.8,0H2.2C1.7,0,1.4,0.4,1.4,0.9l1.8,20c0,0.5,0.5,1,0.9,1.1l7,1.9c0.5,0.1,1.2,0.1,1.7,0l7.1-1.9
	c0.5-0.1,0.9-0.6,0.9-1.1l1.8-20C22.6,0.4,22.3,0,21.8,0z M18.4,7.2L18.4,7.2C18.4,7.2,18.4,7.2,18.4,7.2l-5.5,2.3
	c-0.1,0-0.1,0.1-0.1,0.2c0,0.1,0.1,0.1,0.2,0.1h4.3c0.2,0,0.5,0.1,0.6,0.3s0.2,0.4,0.2,0.6L17.4,17c0,0.3-0.2,0.6-0.5,0.7l-4.6,1.6
	c-0.2,0.1-0.4,0.1-0.5,0l-4.5-1.6c-0.3-0.1-0.5-0.4-0.5-0.7l-0.3-2.9c0-0.1,0-0.3,0.1-0.4c0.1-0.1,0.2-0.2,0.4-0.2h1.3
	c0.3,0,0.5,0.2,0.5,0.5l0.2,1.8l3.1,1.1l3.1-1.1l0.4-3.6H6.6c-0.3,0-0.5-0.2-0.5-0.5l-0.2-1.5c0-0.2,0.1-0.5,0.3-0.6L12,7.3
	c0.1,0,0.1-0.1,0.1-0.2C12,7,12,7,11.9,7h-6C5.7,7,5.6,6.8,5.6,6.7L5.4,5c0-0.1,0-0.2,0.1-0.3c0.1-0.1,0.2-0.1,0.3-0.1h12.6
	c0.1,0,0.2,0,0.3,0.1c0.1,0.1,0.1,0.2,0.1,0.3L18.4,7.2z"/>
</svg>
