<?xml version="1.0" encoding="utf-8"?>
<!-- Generator: Adobe Illustrator 21.0.0, SVG Export Plug-In . SVG Version: 6.00 Build 0)  -->
<svg version="1.1" id="Capa_1" xmlns="http://www.w3.org/2000/svg" xmlns:xlink="http://www.w3.org/1999/xlink" x="0px" y="0px"
	 viewBox="0 0 24 24" style="enable-background:new 0 0 24 24;" xml:space="preserve">
<path d="M7.8,0c-2,0-3.6,1.6-3.6,3.6s1.6,3.6,3.6,3.6h8.4c2,0,3.6-1.6,3.6-3.6S18.2,0,16.2,0H7.8z"/>
<path d="M12,8.4c-1.5,0-2.8,0.9-3.3,2.2C8.5,11,8.4,11.5,8.4,12s0.1,1,0.3,1.4c0.6,1.3,1.8,2.2,3.3,2.2h3.6V8.4H12z"/>
<path d="M12,16.8c-2,0-3.6,1.6-3.6,3.6S10,24,12,24s3.6-1.6,3.6-3.6v-3.6H12z"/>
</svg>
