<?xml version="1.0" encoding="utf-8"?>
<!-- Generator: Adobe Illustrator 21.0.0, SVG Export Plug-In . SVG Version: 6.00 Build 0)  -->
<svg version="1.1" id="Layer_1" xmlns="http://www.w3.org/2000/svg" xmlns:xlink="http://www.w3.org/1999/xlink" x="0px" y="0px"
	 viewBox="0 0 24 24" style="enable-background:new 0 0 24 24;" xml:space="preserve" fill="#00caff">
<g id="XMLID_106_">
	<path id="XMLID_107_" d="M1.8,0C1.6,0,1.4,0.2,1.4,0.4l1.9,20.9c0,0.2,0.2,0.4,0.4,0.5l7.9,2.2c0.2,0.1,0.6,0.1,0.8,0l7.9-2.2
		c0.2-0.1,0.4-0.3,0.4-0.5l1.9-20.9c0-0.2-0.1-0.4-0.4-0.4H1.8z M18.6,4.8c0,0.2,0,0.5-0.1,0.8l0,0.5c0,0.2,0,0.5-0.1,0.7
		c0,0.2,0,0.3,0,0.3c0,0-0.2,0-0.4,0H8.6c-0.2,0-0.4,0.2-0.4,0.4l0.2,1.9c0,0.2,0.2,0.4,0.4,0.4H17c0.2,0,0.6,0,0.8,0
		c0.2,0,0.3,0.2,0.3,0.4c0,0.2,0,0.5-0.1,0.8l-0.6,6.2c0,0.2,0,0.5-0.1,0.6c0,0.1-0.2,0.3-0.4,0.3c0,0-5.1,1.4-5.1,1.4
		c0,0-5.1-1.4-5.1-1.4c-0.2-0.1-0.4-0.3-0.4-0.5l-0.3-3.4c0-0.2,0.1-0.4,0.4-0.4H7c0.2,0,0.6,0,0.8,0h0.6c0.2,0,0.4,0.2,0.4,0.4
		L9,15.5C9,15.7,9.2,16,9.4,16c0,0,2.6,0.7,2.6,0.7s2.6-0.7,2.6-0.7c0.2-0.1,0.4-0.3,0.4-0.5l0.2-2.6c0-0.2-0.1-0.4-0.4-0.4H6.5
		c-0.2,0-0.4-0.2-0.4-0.4L5.4,5.5c0-0.2,0-0.6-0.1-0.8c0-0.2,0.1-0.4,0.4-0.4h12.5C18.5,4.4,18.6,4.6,18.6,4.8z"/>
</g>
</svg>
