<?xml version="1.0" encoding="utf-8"?>
<!-- Generator: Adobe Illustrator 21.0.0, SVG Export Plug-In . SVG Version: 6.00 Build 0)  -->
<svg version="1.1" id="Layer_1" xmlns="http://www.w3.org/2000/svg" xmlns:xlink="http://www.w3.org/1999/xlink" x="0px" y="0px"
	 viewBox="0 0 24 24" fill="#00caff" style="enable-background:new 0 0 24 24;" xml:space="preserve">
<g>
	<path d="M14.1,11.4c-1.3,0-1.9,1.1-1.9,2.5c0,1.5,0.7,2.4,1.9,2.4c0.8,0,1.4-0.5,1.6-1.3c0.1-0.2,0.1-0.4,0.1-0.6v-1.2
		c0-0.1,0-0.4,0-0.5C15.6,12,15,11.4,14.1,11.4z"/>
	<path d="M19.5,0.3H4.5C2,0.3,0,2.3,0,4.8v14.5c0,2.5,2,4.5,4.5,4.5h15.1c2.5,0,4.5-2,4.5-4.5V4.8C24,2.3,22,0.3,19.5,0.3z
		 M8.2,18.3H5.4V6.1h2.8V18.3z M16.1,18.3L16,17h0c-0.6,1-1.6,1.5-2.8,1.5c-2.1,0-3.8-1.8-3.8-4.6c0-3,1.8-4.7,4-4.7
		c1.1,0,1.9,0.4,2.3,1h0V5.5h2.8v10.2c0,1,0,2.1,0.1,2.7H16.1z"/>
</g>
</svg>
