<?xml version="1.0" encoding="utf-8"?>
<!-- Generator: Adobe Illustrator 21.0.0, SVG Export Plug-In . SVG Version: 6.00 Build 0)  -->
<svg version="1.1" id="Capa_1" xmlns="http://www.w3.org/2000/svg" xmlns:xlink="http://www.w3.org/1999/xlink" x="0px" y="0px"
	 viewBox="0 0 24 24" style="enable-background:new 0 0 24 24;" xml:space="preserve">
<path d="M12,0C5.4,0,0,5.4,0,12s5.4,12,12,12s12-5.4,12-12S18.6,0,12,0z M17.6,7.1c-1.9,1.4-3.8,2.8-5.6,4.1
	c-1.9-1.4-3.7-2.7-5.6-4.1C10.1,7.1,13.8,7.1,17.6,7.1z M18.4,16.4c-0.1,0.3-0.4,0.4-0.7,0.4c-3.8,0-7.6,0-11.4,0
	c-0.4,0-0.6-0.1-0.7-0.4c0-2.8,0-5.6,0-8.4c0.1,0.1,0.2,0.1,0.3,0.2c1.9,1.4,3.8,2.8,5.7,4.1c0.4,0.3,0.6,0.3,0.9,0
	c0.2-0.2,0.5-0.4,0.7-0.5c1.7-1.3,3.5-2.5,5.2-3.8C18.4,10.8,18.4,13.6,18.4,16.4z"/>
</svg>
