<?xml version="1.0" encoding="utf-8"?>
<!-- Generator: Adobe Illustrator 21.0.0, SVG Export Plug-In . SVG Version: 6.00 Build 0)  -->
<svg version="1.1" id="Capa_1" xmlns="http://www.w3.org/2000/svg" xmlns:xlink="http://www.w3.org/1999/xlink" x="0px" y="0px"
	 viewBox="0 0 24 24" style="enable-background:new 0 0 24 24;" xml:space="preserve">
<path d="M12,0C5.4,0,0,5.4,0,12s5.4,12,12,12s12-5.4,12-12S18.6,0,12,0z M15.1,17.4c-0.2,0-2.5,0.3-5.8-3.1c-3.3-3.4-3.5-6-3.5-6.2
	c0-0.2,2-2.6,2.3-2.6c0.3,0,1.9,2.8,1.9,3C9.9,8.7,8.7,9.4,8.7,9.7s0.5,1.9,2,3.4s2.8,1.5,3,1.4s1-1,1.2-1c0.2,0,2.9,1.7,2.9,1.9
	C17.8,15.6,15.4,17.4,15.1,17.4z"/>
</svg>
