<?xml version="1.0" encoding="utf-8"?>
<!-- Generator: Adobe Illustrator 21.0.0, SVG Export Plug-In . SVG Version: 6.00 Build 0)  -->
<svg version="1.1" id="Capa_1" xmlns="http://www.w3.org/2000/svg" xmlns:xlink="http://www.w3.org/1999/xlink" x="0px" y="0px"
	 viewBox="0 0 24 24" fill="#00caff" style="enable-background:new 0 0 24 24;" xml:space="preserve">
<title>Tailwind CSS icon</title>
<path d="M12,4.8c-3.2,0-5.2,1.6-6,4.8C7.2,8,8.6,7.4,10.2,7.8c0.9,0.2,1.6,0.9,2.3,1.6C13.7,10.6,15,12,18,12c3.2,0,5.2-1.6,6-4.8
	c-1.2,1.6-2.6,2.2-4.2,1.8c-0.9-0.2-1.6-0.9-2.3-1.6C16.3,6.2,15,4.8,12,4.8z M6,12c-3.2,0-5.2,1.6-6,4.8c1.2-1.6,2.6-2.2,4.2-1.8
	c0.9,0.2,1.6,0.9,2.3,1.6c1.2,1.2,2.5,2.6,5.5,2.6c3.2,0,5.2-1.6,6-4.8c-1.2,1.6-2.6,2.2-4.2,1.8c-0.9-0.2-1.6-0.9-2.3-1.6
	C10.3,13.4,9,12,6,12z"/>
</svg>
