<?xml version="1.0" encoding="utf-8"?>
<!-- Generator: Adobe Illustrator 21.0.0, SVG Export Plug-In . SVG Version: 6.00 Build 0)  -->
<svg version="1.1" id="Layer_1" xmlns="http://www.w3.org/2000/svg" xmlns:xlink="http://www.w3.org/1999/xlink" x="0px" y="0px"
	 viewBox="0 0 24 24" fill="#00caff" style="enable-background:new 0 0 24 24;" xml:space="preserve">
<g id="XMLID_21_">
	<path id="XMLID_4_" d="M0,12c0,4.8,2.8,8.9,6.8,10.8L1,7.1C0.4,8.6,0,10.3,0,12z M20.1,11.4c0-1.5-0.5-2.5-1-3.3
		c-0.6-1-1.2-1.8-1.2-2.8c0-1.1,0.8-2.1,2-2.1c0,0,0.1,0,0.1,0C18,1.2,15.1,0,12,0C7.8,0,4.1,2.2,2,5.4c0.3,0,0.6,0,0.8,0
		c1.2,0,3.2-0.1,3.2-0.1c0.6,0,0.7,0.9,0.1,1c0,0-0.6,0.1-1.4,0.1l4.4,13l2.6-7.9L9.7,6.4c-0.6,0-1.2-0.1-1.2-0.1
		c-0.6,0-0.6-1,0.1-1c0,0,2,0.1,3.2,0.1c1.2,0,3.2-0.1,3.2-0.1c0.6,0,0.7,0.9,0.1,1c0,0-0.6,0.1-1.4,0.1L18,19.3l1.2-4
		C19.8,13.7,20.1,12.4,20.1,11.4z M12.2,13.1L8.6,23.5C9.7,23.8,10.8,24,12,24c1.4,0,2.7-0.2,4-0.7c0,0-0.1-0.1-0.1-0.2L12.2,13.1z
		 M22.5,6.2c0,0.4,0.1,0.8,0.1,1.2c0,1.2-0.2,2.6-0.9,4.3L18,22.4c3.6-2.1,6-6,6-10.4C24,9.9,23.5,7.9,22.5,6.2z"/>
</g>
</svg>
