<?xml version="1.0" standalone="no"?>
<!DOCTYPE svg PUBLIC "-//W3C//DTD SVG 20010904//EN"
 "http://www.w3.org/TR/2001/REC-SVG-20010904/DTD/svg10.dtd">
<svg version="1.0" xmlns="http://www.w3.org/2000/svg"
 width="700.000000pt" height="700.000000pt" viewBox="0 0 700.000000 700.000000"
 preserveAspectRatio="xMidYMid meet">
<metadata>
Created by potrace 1.14, written by Peter Selinger 2001-2017
</metadata>
<g transform="translate(0.000000,700.000000) scale(0.100000,-0.100000)"
fill="#000000" stroke="none">
<path d="M4103 5936 c-92 -30 -172 -96 -213 -176 -8 -14 -333 -981 -723 -2150
l-710 -2125 -1 -85 c-1 -72 3 -94 25 -141 37 -79 90 -133 167 -171 60 -30 76
-33 152 -33 70 0 95 5 140 26 70 32 123 79 156 136 15 24 346 1001 737 2171
l710 2127 1 85 c1 77 -2 92 -32 152 -58 117 -166 188 -296 195 -42 2 -88 -3
-113 -11z"/>
<path d="M1659 4887 c-25 -7 -65 -25 -90 -39 -24 -15 -295 -278 -601 -585
-623 -624 -609 -606 -614 -748 -3 -70 20 -165 49 -203 32 -42 1117 -1127 1152
-1152 153 -107 371 -71 480 78 57 79 79 179 61 275 -19 102 -29 114 -474 560
l-427 427 422 423 c485 485 477 475 478 627 0 71 -4 94 -26 141 -57 122 -166
197 -294 205 -40 2 -89 -2 -116 -9z"/>
<path d="M5126 4875 c-84 -34 -145 -89 -186 -170 -32 -62 -35 -75 -35 -154 0
-152 -8 -142 478 -628 l422 -423 -427 -427 c-450 -452 -460 -464 -477 -572
-22 -137 44 -279 159 -349 127 -76 268 -74 383 7 23 16 292 281 598 588 630
632 603 598 603 753 1 153 29 119 -613 763 -641 643 -624 630 -770 634 -61 2
-88 -3 -135 -22z"/>
</g>
</svg>
